<svg version="1" xmlns="http://www.w3.org/2000/svg" width="1365.333" height="1365.333" viewBox="0 0 1024.000000 1024.000000"><path d="M83.8 2c-17.3 3.6-29.4 8.8-41.5 17.8C22 34.9 9.2 54.3 2.8 79.5l-2.3 9v847l2.3 9c5.2 20.6 13 34.5 27.6 49.1 14.6 14.6 28.5 22.4 49.1 27.6l9 2.3h847l9-2.3c20.6-5.2 34.5-13 49.1-27.6 14.6-14.6 22.4-28.5 27.6-49.1l2.3-9v-847l-2.3-9c-5.2-20.6-13-34.5-27.6-49.1-14.4-14.3-27-21.6-47.5-27.3L936.5.5l-422-.2C108.1.1 92.2.2 83.8 2zm551 340.9l.2 86.4 4.8-4.5c14.3-13.3 39.6-24.9 64.7-29.4 19.1-3.4 47.2-1.8 65.4 3.8 35.6 11 65.1 41.1 75.6 77.2 5.5 19.1 5.5 20.9 5.3 158.1l-.3 126-35.7.3-35.7.2-.3-129.2c-.3-120.4-.4-129.7-2.1-135.3-5.7-19.2-17.1-33.6-32.8-41.6-10.5-5.2-20-7.3-33.4-7.3-10.9 0-12.9.3-21.5 3.3-16.6 5.7-27.8 13-43.4 28.7L635 490.2l-.2 135.1-.3 135.2-35.7.3-35.8.2V277.4l10.9-10.7 10.8-10.7 24.9.2 24.9.3.3 86.4zM348.2 396c29 5.6 51.2 17.1 70.9 36.9 18.8 18.9 30.5 40.2 36 65.6 3.5 16.4 4 36.6 3.7 151.5l-.3 110.5-24.4.3c-13.5.1-24.9-.2-25.3-.6-.7-.7-7.7-39.2-7.8-42.5 0-1.7-3.9-.5-5.4 1.8-3.6 5.4-14.5 16-23.5 22.8-23.7 17.8-47.4 25.2-81.1 25-42.4-.2-75.2-14.1-95.1-40.5-12.4-16.5-18.2-32-21-55.8-4.6-40.2 8.9-74.2 38.3-95.8 12.2-9 31-16.8 50.9-21.1 20.8-4.5 31.4-5.3 77.7-5.8l44.2-.5v-16.2c0-18.1-1.5-29.3-5.5-41.1-7.5-22.5-23.5-37.7-46.1-44-8.2-2.3-27.6-3.1-37.1-1.5-19.4 3.1-44.1 14.2-60.7 27.2-3.6 2.8-5.8 3.8-8.5 3.8h-3.6l-12.3-20.9c-6.7-11.5-12.2-21.4-12.2-21.9 0-1.7 14.8-10.9 30.3-18.8 22.2-11.3 43.6-17.7 67.7-20.4 13-1.4 37.8-.4 50.2 2z"/><path d="M302.5 600.6c-11.9 2.1-18.1 4.1-26.8 8.6-23.2 12.1-33.3 33.5-28.3 60.7 4 22.1 18.6 36.8 41.6 41.8 11.5 2.4 29.5 2.2 39.5-.6 18.2-5.1 35.5-16.4 52.3-34.2l5.2-5.6V599l-37.7.1c-28 .1-39.9.4-45.8 1.5z"/></svg>